<?xml version="1.0" encoding="utf-8"?>
<!-- Generator: Adobe Illustrator 14.0.0, SVG Export Plug-In . SVG Version: 6.00 Build 43363)  -->
<!DOCTYPE svg PUBLIC "-//W3C//DTD SVG 1.1//EN" "http://www.w3.org/Graphics/SVG/1.1/DTD/svg11.dtd">
<svg version="1.1" id="Layer_1" xmlns="http://www.w3.org/2000/svg" xmlns:xlink="http://www.w3.org/1999/xlink" x="0px" y="0px"
	 width="595.28px" height="841.89px" viewBox="0 0 595.28 841.89" enable-background="new 0 0 595.28 841.89" xml:space="preserve">
<text transform="matrix(0.693 0 0 1 15.1399 120.4634)" fill="#BF6117" font-family="'MyriadPro-Regular'" font-size="77.9189">You card will appear here</text>
<polygon fill="#BF6117" stroke="#000000" stroke-width="8" points="78.14,277.445 59.834,256.858 32.497,260.267 46.419,236.495 
	34.729,211.55 61.64,217.445 81.752,198.619 84.461,226.034 108.581,239.344 83.345,250.392 "/>
<polygon fill="#BF6117" stroke="#000000" stroke-width="8" points="78.14,651.445 59.834,630.858 32.497,634.267 46.419,610.496 
	34.729,585.55 61.64,591.445 81.752,572.619 84.461,600.034 108.581,613.343 83.345,624.392 "/>
<polygon fill="#BF6117" stroke="#000000" stroke-width="8" points="350.059,629.048 331.753,608.461 304.415,611.871 
	318.338,588.099 306.648,563.154 333.559,569.048 353.671,550.222 356.38,577.637 380.5,590.947 355.264,601.996 "/>
<polygon fill="#BF6117" stroke="#000000" stroke-width="8" points="83.14,786.445 64.834,765.858 37.497,769.267 51.419,745.496 
	39.729,720.55 66.64,726.445 86.752,707.619 89.461,735.034 113.581,748.343 88.345,759.392 "/>
<polygon fill="#BF6117" stroke="#000000" stroke-width="8" points="335.14,803.445 316.833,782.858 289.497,786.267 
	303.419,762.496 291.729,737.55 318.64,743.445 338.752,724.619 341.461,752.034 365.581,765.343 340.345,776.392 "/>
<polygon fill="#BC198A" stroke="#000000" stroke-width="8" points="440.14,793.048 421.833,772.461 394.497,775.871 
	408.419,752.099 396.73,727.154 423.64,733.048 443.752,714.222 446.461,741.637 470.581,754.947 445.345,765.996 "/>
<polygon fill="#BC198A" stroke="#000000" stroke-width="8" points="201.14,454.635 182.833,434.048 155.497,437.458 
	169.419,413.686 157.73,388.741 184.64,394.635 204.752,375.809 207.461,403.224 231.581,416.534 206.345,427.583 "/>
<polygon fill="#BC198A" stroke="#000000" stroke-width="8" points="510.308,404.445 492.001,383.858 464.665,387.267 
	478.587,363.496 466.898,338.55 493.808,344.445 513.92,325.619 516.629,353.034 540.749,366.343 515.513,377.392 "/>
<polygon fill="#9B52DB" stroke="#000000" stroke-width="8" points="323.308,523.445 305.001,502.858 277.665,506.267 
	291.587,482.496 279.897,457.55 306.808,463.445 326.92,444.619 329.629,472.034 353.749,485.343 328.513,496.392 "/>
<polygon fill="#9B52DB" stroke="#000000" stroke-width="8" points="180.354,594.445 162.047,573.858 134.711,577.267 
	148.633,553.496 136.943,528.55 163.854,534.445 183.966,515.619 186.675,543.034 210.795,556.343 185.559,567.392 "/>
<polygon fill="#BF6117" stroke="#000000" stroke-width="8" points="422.308,476.445 404.001,455.858 376.665,459.267 
	390.587,435.496 378.898,410.55 405.808,416.445 425.92,397.619 428.629,425.034 452.749,438.343 427.513,449.392 "/>
<polygon fill="#BC1938" stroke="#000000" stroke-width="8" points="411.224,230.445 392.917,209.858 365.581,213.267 
	379.503,189.495 367.814,164.55 394.724,170.445 414.836,151.619 417.545,179.034 441.665,192.344 416.429,203.392 "/>
<polygon fill="#BC1938" stroke="#000000" stroke-width="8" points="201.14,335.792 182.833,315.206 155.497,318.615 
	169.419,294.843 157.73,269.897 184.64,275.792 204.752,256.966 207.461,284.381 231.581,297.691 206.345,308.74 "/>
<polygon fill="#BF6117" stroke="#000000" stroke-width="8" points="505.224,306.206 486.917,285.619 459.581,289.028 
	473.503,265.256 461.814,240.311 488.724,246.206 508.836,227.379 511.545,254.794 535.665,268.104 510.429,279.153 "/>
<linearGradient id="SVGID_1_" gradientUnits="userSpaceOnUse" x1="238.3811" y1="213.5073" x2="315.7073" y2="213.5073">
	<stop  offset="0" style="stop-color:#FFFFFF"/>
	<stop  offset="1" style="stop-color:#000000"/>
</linearGradient>
<polygon fill="url(#SVGID_1_)" stroke="#000000" stroke-width="6" points="312.14,241.445 285.149,234.771 264.35,253.222 
	262.356,225.49 238.381,211.411 264.14,200.945 270.121,173.792 288.035,195.056 315.707,192.354 301.019,215.962 "/>
<linearGradient id="SVGID_2_" gradientUnits="userSpaceOnUse" x1="265.7532" y1="375.5073" x2="343.0793" y2="375.5073">
	<stop  offset="0" style="stop-color:#FFFFFF"/>
	<stop  offset="1" style="stop-color:#000000"/>
</linearGradient>
<polygon fill="url(#SVGID_2_)" stroke="#000000" stroke-width="6" points="339.512,403.445 312.521,396.771 291.722,415.222 
	289.728,387.49 265.753,373.411 291.512,362.945 297.493,335.792 315.407,357.056 343.079,354.355 328.391,377.962 "/>
<linearGradient id="SVGID_3_" gradientUnits="userSpaceOnUse" x1="36.8762" y1="437.0317" x2="114.2024" y2="437.0317">
	<stop  offset="0" style="stop-color:#FFFFFF"/>
	<stop  offset="1" style="stop-color:#000000"/>
</linearGradient>
<polygon fill="url(#SVGID_3_)" stroke="#000000" stroke-width="6" points="110.635,464.969 83.644,458.295 62.845,476.747 
	60.851,449.014 36.876,434.935 62.635,424.469 68.616,397.317 86.53,418.581 114.202,415.879 99.514,439.486 "/>
<linearGradient id="SVGID_4_" gradientUnits="userSpaceOnUse" x1="172.1326" y1="747.0317" x2="249.4583" y2="747.0317">
	<stop  offset="0" style="stop-color:#FFFFFF"/>
	<stop  offset="1" style="stop-color:#000000"/>
</linearGradient>
<polygon fill="url(#SVGID_4_)" stroke="#000000" stroke-width="6" points="245.892,774.969 218.901,768.295 198.101,786.747 
	196.108,759.014 172.133,744.935 197.891,734.469 203.873,707.317 221.786,728.581 249.458,725.879 234.77,749.487 "/>
<linearGradient id="SVGID_5_" gradientUnits="userSpaceOnUse" x1="134.0896" y1="658.5073" x2="211.4153" y2="658.5073">
	<stop  offset="0" style="stop-color:#FFFFFF"/>
	<stop  offset="1" style="stop-color:#000000"/>
</linearGradient>
<polygon fill="url(#SVGID_5_)" stroke="#000000" stroke-width="6" points="207.849,686.445 180.858,679.771 160.058,698.222 
	158.065,670.49 134.09,656.411 159.848,645.945 165.83,618.792 183.743,640.056 211.415,637.355 196.727,660.962 "/>
<linearGradient id="SVGID_6_" gradientUnits="userSpaceOnUse" x1="449.427" y1="658.5073" x2="526.7532" y2="658.5073">
	<stop  offset="0" style="stop-color:#FFFFFF"/>
	<stop  offset="1" style="stop-color:#000000"/>
</linearGradient>
<polygon fill="url(#SVGID_6_)" stroke="#000000" stroke-width="6" points="523.187,686.445 496.196,679.771 475.396,698.222 
	473.403,670.49 449.427,656.411 475.187,645.945 481.167,618.792 499.081,640.056 526.753,637.355 512.066,660.962 "/>
<linearGradient id="SVGID_7_" gradientUnits="userSpaceOnUse" x1="488.0891" y1="470.7925" x2="565.4153" y2="470.7925">
	<stop  offset="0" style="stop-color:#FFFFFF"/>
	<stop  offset="1" style="stop-color:#000000"/>
</linearGradient>
<polygon fill="url(#SVGID_7_)" stroke="#000000" stroke-width="6" points="561.849,498.73 534.858,492.056 514.058,510.507 
	512.065,482.775 488.089,468.696 513.849,458.23 519.829,431.078 537.743,452.341 565.415,449.64 550.728,473.248 "/>
</svg>
