<?xml version="1.0" encoding="utf-8"?>
<!-- Generator: Adobe Illustrator 14.0.0, SVG Export Plug-In . SVG Version: 6.00 Build 43363)  -->
<!DOCTYPE svg PUBLIC "-//W3C//DTD SVG 1.1//EN" "http://www.w3.org/Graphics/SVG/1.1/DTD/svg11.dtd">
<svg version="1.1" id="Layer_1" xmlns="http://www.w3.org/2000/svg" xmlns:xlink="http://www.w3.org/1999/xlink" x="0px" y="0px"
	 width="595.28px" height="841.89px" viewBox="0 0 595.28 841.89" enable-background="new 0 0 595.28 841.89" xml:space="preserve">
<text transform="matrix(1.5061 0 0 1 37.4546 105.2188)" font-family="'Palatino-Roman'" font-size="115.3312">7</text>
<text transform="matrix(1.4962 0 0 1 465.125 789.9258)" font-family="'Palatino-Roman'" font-size="116.0978">7</text>
<g id="XMLID_1_">
	<g>
		<path d="M383.88,322.1c40.58-55.07,81.89,5.07,80.44,11.59c-6.891,31.01,18.84,69.57-29.71,110.87
			c-48.551,41.311-52.7-20.729-62.32-17.39c-16.67,5.8-14.49,8.7-17.39,16.67c-2.9,7.97-20.29,32.61,10.14,75.36
			c30.44,42.76-5.07,44.93-101.45,49.28c-96.37,4.35-17.86-10.87-12.32-60.87c5.55-50-10.86,18.84-5.79-53.63
			c5.07-72.46-0.73-13.04-5.8-13.04c-5.07,0-37.44,48.699-90.58,10.149c-36.96-26.82-53.62-56.53-9.42-98.55
			c44.2-42.03,82.29-19.63,84.06-6.53c3.62,26.81,5.07-23.19-12.32-37.68c-27.37-22.8-10.68-79.47,72.46-79.71
			c139.08-0.39,90.75,134.28,65.22,111.6C355.62,346.01,357.25,358.25,383.88,322.1z"/>
	</g>
	<g>
		<path fill="none" stroke="#87888A" stroke-width="20" d="M349.1,340.22c25.53,22.68,73.86-111.99-65.22-111.6
			c-83.14,0.24-99.83,56.91-72.46,79.71c17.39,14.49,15.94,64.49,12.32,37.68c-1.77-13.1-39.86-35.5-84.06,6.53
			c-44.2,42.02-27.54,71.729,9.42,98.55c53.14,38.55,85.51-10.149,90.58-10.149c5.07,0,10.87-59.42,5.8,13.04
			c-5.07,72.47,11.34,3.63,5.79,53.63c-5.54,50-84.05,65.22,12.32,60.87c96.38-4.351,131.891-6.521,101.45-49.28
			c-30.43-42.75-13.04-67.391-10.14-75.36c2.899-7.97,0.72-10.87,17.39-16.67c9.62-3.34,13.77,58.7,62.32,17.39
			c48.55-41.3,22.819-79.859,29.71-110.87c1.449-6.52-39.86-66.66-80.44-11.59C357.25,358.25,355.62,346.01,349.1,340.22z"/>
	</g>
</g>
</svg>
