<?xml version="1.0" encoding="utf-8"?>
<!-- Generator: Adobe Illustrator 14.0.0, SVG Export Plug-In . SVG Version: 6.00 Build 43363)  -->
<!DOCTYPE svg PUBLIC "-//W3C//DTD SVG 1.1//EN" "http://www.w3.org/Graphics/SVG/1.1/DTD/svg11.dtd">
<svg version="1.1" id="Layer_1" xmlns="http://www.w3.org/2000/svg" xmlns:xlink="http://www.w3.org/1999/xlink" x="0px" y="0px"
	 width="595.28px" height="841.89px" viewBox="0 0 595.28 841.89" enable-background="new 0 0 595.28 841.89" xml:space="preserve">
<g id="XMLID_1_">
	<g>
		<path fill="#E2001A" d="M575.119,132.785c27.751,216.067-242.115,353.353-250.306,314.873
			c-23.719-111.545-113.363-162.701-126.389-218.671C160.672,66.822,268.101-14.16,387.106,135.778
			C387.105,135.777,555.365-20.982,575.119,132.785z"/>
	</g>
	<g>
		<path fill="none" stroke="#000000" stroke-width="10" d="M575.119,132.785c-19.754-153.767-188.014,2.993-188.014,2.993
			C268.099-14.161,160.672,66.822,198.423,228.987c13.028,55.97,102.671,107.126,126.39,218.671
			C333.003,486.138,602.87,348.852,575.119,132.785z"/>
	</g>
</g>
<text transform="matrix(1.5061 0 0 1 32.3821 111.7388)" font-family="'Palatino-Roman'" font-size="115.3312">K</text>
<text transform="matrix(1.4962 0 0 1 422.9631 776.1577)" font-family="'Palatino-Roman'" font-size="116.0978">K</text>
<g id="XMLID_2_">
	<g>
		<path fill="#E2001A" d="M352.102,131.007c140.51,122.603-15.93,346.315-43.731,326.125
			c-80.567-58.531-184.835-45.426-226.224-74.223c-119.923-83.433-71.881-189.144,110.88-154.655
			C193.027,228.254,252.099,43.758,352.102,131.007z"/>
	</g>
	<g>
		<path fill="none" stroke="#000000" stroke-width="10" d="M352.102,131.007c-100.003-87.249-159.075,97.248-159.075,97.248
			c-182.762-34.49-230.803,71.221-110.88,154.654c41.389,28.797,145.656,15.692,226.224,74.223
			C336.173,477.322,492.612,253.61,352.102,131.007z"/>
	</g>
</g>
<g id="XMLID_3_">
	<g>
		<path fill="#E2001A" d="M314.908,298.703c115.514,165.24-28.487,402.517-51.517,374.583
			c-66.738-80.984-156.905-81.885-191.243-121.999c-99.496-116.231-53.693-232.38,101.897-163.61
			C174.046,387.677,232.694,181.109,314.908,298.703z"/>
	</g>
	<g>
		<path fill="none" stroke="#000000" stroke-width="10" d="M314.908,298.703c-82.213-117.593-140.861,88.974-140.861,88.974
			c-155.591-68.77-201.394,47.378-101.898,163.61c34.336,40.114,124.505,41.015,191.243,121.999
			C286.421,701.219,430.421,463.943,314.908,298.703z"/>
	</g>
</g>
<g id="XMLID_4_">
	<g>
		<path fill="#E2001A" d="M568.949,501.207C505.797,671.496,305.966,667.844,315.41,636.25c27.385-91.563-3.809-164.2,9.307-210.581
			c37.996-134.389,127.118-152.374,138.704,4.603C463.421,430.272,613.89,380.019,568.949,501.207z"/>
	</g>
	<g>
		<path fill="none" stroke="#000000" stroke-width="10" d="M568.949,501.207c44.94-121.188-105.528-70.935-105.528-70.935
			c-11.586-156.975-100.708-138.991-138.704-4.603c-13.116,46.383,18.078,119.018-9.307,210.581
			C305.966,667.844,505.797,671.496,568.949,501.207z"/>
	</g>
</g>
<path fill="none" stroke="#6D3C3C" stroke-width="6" d="M-527.86,569.445"/>
<path fill="#D18080" stroke="#6D3C3C" stroke-width="6" d="M193.103,400.866c-15.22,16.809-79.98,55.096-62.404,70.973
	c17.575,15.875,22.352,4.668,37.634,10.271c15.281,5.604,28.653,5.604,15.281,18.676c-13.371,13.074-14.391,17.744-7.194,23.346
	c7.194,5.604,6.904-6.953,0,10.619c-4.268,10.859-9.042,9.926,8.149,17.395c17.192,7.471,24.727-20.201,3.821,19.299
	c-12.878,24.332,7.312,33.488,41.114,40.469c25.977,5.363,34.132-5.252,47.945-14.941c12.215-8.57,9.104-27.225,71.281-75.545
	c37.25-28.949,35.465-39.316,34.51-70.133C382.286,420.476,193.103,400.866,193.103,400.866z"/>
<ellipse fill="none" stroke="#161515" stroke-width="6" cx="209.264" cy="426.865" rx="18" ry="10.988"/>
<path fill="#725E5E" stroke="#161515" stroke-width="6" d="M147.732,482.583c0-24.156,41.481,0,19.538,0"/>
<ellipse fill="#0C0B0B" stroke="#F9F7F7" stroke-width="6" cx="209.264" cy="426.865" rx="8" ry="5.773"/>
<path fill="none" stroke="#6D3C3C" stroke-width="6" d="M219.264,513.277c0,6-19.61,10.854-43.845,10.854"/>
<g id="XMLID_5_">
	<g>
		<path fill="#F4800C" d="M458.941,326.844c68.137-36.033-3.578,36.5-25.938,69.486c-22.356,32.986-32.596,39.326-51.229,63.322
			c0,0-244.762-19.055-233.037-166.866c8.514-107.364-15.715-45.602,48.118,20.608c22.131,22.961,14.897,30.53,16.151-78.665
			c1.254-109.194,15.197-19.469,38.085,71.754c22.891,91.214,11.584,17.145,45.319-85.495c33.735-102.64,6.832-4.401,16.664,56.101
			c10.252,63.121,0.206-20.392,11.252,68.48c6.046,48.667,12.239,3.222,47.421-93.769c35.182-96.991,22.261,23.333,17.371,42.182
			c-5.021,19.353-1.935,25.031-11.16,62.977c-9.228,37.946,3.564,12.542,22.511,1.495
			C419.417,347.408,390.803,362.877,458.941,326.844z"/>
	</g>
	<g>
		<path fill="none" stroke="#6D3C3C" stroke-width="6" d="M381.775,459.652c18.634-23.996,28.872-30.334,51.229-63.321
			c22.358-32.987,94.073-105.519,25.938-69.486c-68.137,36.033-39.523,20.564-58.472,31.611
			c-18.945,11.047-31.737,36.451-22.511-1.495c9.227-37.945,6.141-43.624,11.16-62.977c4.89-18.849,17.811-139.173-17.371-42.182
			c-35.182,96.991-41.375,142.436-47.421,93.769c-11.046-88.872-1-5.359-11.252-68.48c-9.832-60.502,17.07-158.741-16.664-56.101
			c-33.735,102.64-22.429,176.708-45.319,85.495c-22.888-91.223-36.831-180.948-38.085-71.754
			c-1.253,109.194,5.979,101.626-16.151,78.665c-63.833-66.21-39.604-127.972-48.118-20.608
			C137.013,440.599,381.775,459.652,381.775,459.652z"/>
	</g>
</g>
<ellipse transform="matrix(0.2857 -0.9583 0.9583 0.2857 -30.2265 341.9082)" fill="#AD3131" stroke="#6D3C3C" stroke-width="6" cx="214.244" cy="191.23" rx="12.642" ry="17.467"/>
<ellipse transform="matrix(0.2857 -0.9583 0.9583 0.2857 -125.3559 315.7975)" fill="#EDD024" stroke="#6D3C3C" stroke-width="6" cx="149.16" cy="241.988" rx="12.248" ry="13.598"/>
<ellipse transform="matrix(0.2857 -0.9583 0.9583 0.2857 55.3383 430.916)" fill="#EDD024" stroke="#6D3C3C" stroke-width="6" cx="316.734" cy="178.336" rx="12.249" ry="13.599"/>
<ellipse transform="matrix(0.2858 -0.9583 0.9583 0.2858 75.5754 530.3712)" fill="#AD3131" stroke="#6D3C3C" stroke-width="6" cx="393.604" cy="214.483" rx="12.641" ry="17.467"/>
<path fill="none" stroke="#6D3C3C" stroke-width="6" d="M183.834,354.34c-5.528,18.539,75.322,58.982,180.766,90.423"/>
<path fill="none" stroke="#6D3C3C" stroke-width="6" d="M210.879,337.36c-3.791,12.712,72.436,46.643,170.429,75.862"/>
<path fill="none" stroke="#000000" stroke-width="20" d="M248.653,565.792c14.084,24.482,6.737,55.076-16.427,68.402"/>
<path fill="none" stroke="#000000" stroke-width="20" d="M237.439,569.445c0,24.375-22.44,44.1-50.175,44.1"/>
<path fill="none" stroke="#000000" stroke-width="20" d="M212.264,570.445c0,16.057-23.969,29.049-53.59,29.049"/>
<path fill="none" stroke="#000000" stroke-width="20" d="M205.946,561.638c-5.378,13.326-34.661,14.049-65.473,1.613"/>
<ellipse fill="#EDD024" stroke="#6D3C3C" stroke-width="6" cx="481.139" cy="319.445" rx="13.6" ry="20.333"/>
</svg>
