<?xml version="1.0" encoding="utf-8"?>
<!-- Generator: Adobe Illustrator 14.0.0, SVG Export Plug-In . SVG Version: 6.00 Build 43363)  -->
<!DOCTYPE svg PUBLIC "-//W3C//DTD SVG 1.1//EN" "http://www.w3.org/Graphics/SVG/1.1/DTD/svg11.dtd">
<svg version="1.1" id="Layer_1" xmlns="http://www.w3.org/2000/svg" xmlns:xlink="http://www.w3.org/1999/xlink" x="0px" y="0px"
	 width="595.28px" height="841.89px" viewBox="0 0 595.28 841.89" enable-background="new 0 0 595.28 841.89" xml:space="preserve">
<text transform="matrix(1.5061 0 0 1 37.4546 105.2188)" font-family="'Palatino-Roman'" font-size="115.3312">8</text>
<text transform="matrix(1.4962 0 0 1 469.4736 776.1582)" font-family="'Palatino-Roman'" font-size="116.0978">8</text>
<path fill="#707173" stroke="#3E3D40" stroke-width="10" d="M266.48,222.1c0,0-127.524,107.247-137.669,170.29
	c-10.145,63.043-3.622,165.941,50.726,139.13c54.348-26.812,73.912-42.028,73.912-42.028s2.174,2.898-4.348,58.695
	s-42.028,102.896-0.725,86.23s144.928-18.113,127.536-48.549s-52.174-106.521-27.536-92.754s86.232,27.535,104.349,0
	c18.116-27.537,102.716-80.168-42.03-221.74C297.64,160.801,266.48,222.1,266.48,222.1z"/>
</svg>
