<?xml version="1.0" encoding="utf-8"?>
<!-- Generator: Adobe Illustrator 14.0.0, SVG Export Plug-In . SVG Version: 6.00 Build 43363)  -->
<!DOCTYPE svg PUBLIC "-//W3C//DTD SVG 1.1//EN" "http://www.w3.org/Graphics/SVG/1.1/DTD/svg11.dtd">
<svg version="1.1" id="Layer_1" xmlns="http://www.w3.org/2000/svg" xmlns:xlink="http://www.w3.org/1999/xlink" x="0px" y="0px"
	 width="595.28px" height="841.89px" viewBox="0 0 595.28 841.89" enable-background="new 0 0 595.28 841.89" xml:space="preserve">
<g id="XMLID_1_">
	<g>
		<path fill="#E2001A" d="M437.51,300.36c70.25,168-130.99,312.11-146.28,282.61c-44.3-85.51-131.98-114.489-155.17-157.25
			c-67.2-123.89,7.24-202.17,141.3-98.55C277.36,327.17,387.51,180.8,437.51,300.36z"/>
	</g>
	<g>
		<path fill="none" stroke="#000000" stroke-width="10" d="M437.51,300.36c-50-119.56-160.15,26.81-160.15,26.81
			c-134.06-103.62-208.5-25.34-141.3,98.55c23.19,42.761,110.87,71.74,155.17,157.25C306.52,612.47,507.76,468.36,437.51,300.36z"/>
	</g>
</g>
<text transform="matrix(1.5061 0 0 1 32.3823 111.7402)" font-family="'Palatino-Roman'" font-size="115.3312">1</text>
<text transform="matrix(1.4962 0 0 1 482.3828 792.0996)" font-family="'Palatino-Roman'" font-size="116.0978">1</text>
</svg>
