<?xml version="1.0" encoding="utf-8"?>
<!-- Generator: Adobe Illustrator 14.0.0, SVG Export Plug-In . SVG Version: 6.00 Build 43363)  -->
<!DOCTYPE svg PUBLIC "-//W3C//DTD SVG 1.1//EN" "http://www.w3.org/Graphics/SVG/1.1/DTD/svg11.dtd">
<svg version="1.1" id="Layer_1" xmlns="http://www.w3.org/2000/svg" xmlns:xlink="http://www.w3.org/1999/xlink" x="0px" y="0px"
	 width="595.28px" height="841.89px" viewBox="0 0 595.28 841.89" enable-background="new 0 0 595.28 841.89" xml:space="preserve">
<g id="XMLID_1_">
	<g>
		<path fill="#E2001A" d="M575.507,132.785c22.373,216.067-195.196,353.354-201.8,314.872
			c-19.122-111.544-91.394-162.7-101.896-218.67c-30.437-162.165,56.173-243.147,152.117-93.209
			C423.927,135.777,559.581-20.982,575.507,132.785z"/>
	</g>
	<g>
		<path fill="none" stroke="#000000" stroke-width="10" d="M575.507,132.785c-15.926-153.767-151.579,2.993-151.579,2.993
			C327.983-14.161,241.374,66.822,271.81,228.987c10.503,55.97,82.774,107.126,101.896,218.67
			C380.31,486.139,597.88,348.852,575.507,132.785z"/>
	</g>
</g>
<text transform="matrix(1.5061 0 0 1 32.3821 111.7397)" font-family="'Palatino-Roman'" font-size="115.3312">Q</text>
<text transform="matrix(1.4962 0 0 1 422.9636 776.1577)" font-family="'Palatino-Roman'" font-size="116.0978">Q</text>
<g id="XMLID_2_">
	<g>
		<path fill="#E2001A" d="M281.284,122.788c133.909,147.022,25.456,368.719-0.581,343.982
			c-75.455-71.709-163.083-69.453-201.701-104.932c-111.897-102.792-82.767-210.471,77.31-152.954
			C156.312,208.885,185.981,18.159,281.284,122.788z"/>
	</g>
	<g>
		<path fill="none" stroke="#000000" stroke-width="10" d="M281.284,122.788c-95.304-104.628-124.972,86.097-124.972,86.097
			c-160.077-57.518-189.207,50.161-77.31,152.954c38.618,35.479,126.246,33.223,201.701,104.932
			C306.74,491.506,415.193,269.81,281.284,122.788z"/>
	</g>
</g>
<g id="XMLID_3_">
	<g>
		<path fill="#E2001A" d="M320.677,359.719c118.438,138.317-28.836,337.253-52.445,313.872
			c-68.415-67.778-160.757-68.438-195.956-102.013C-29.717,474.304,17.094,376.95,176.493,434.405
			C176.493,434.405,236.383,261.285,320.677,359.719z"/>
	</g>
	<g>
		<path fill="none" stroke="#000000" stroke-width="10" d="M320.677,359.719c-84.293-98.434-144.183,74.686-144.183,74.686
			C17.094,376.95-29.717,474.304,72.276,571.579c35.199,33.574,127.542,34.234,195.956,102.013
			C291.841,696.972,439.114,498.037,320.677,359.719z"/>
	</g>
</g>
<path fill="none" stroke="#6D3C3C" stroke-width="6" d="M273.865,402.833"/>
<path fill="none" stroke="#6D3C3C" stroke-width="6" d="M254.865,381.61"/>
<g>
	<path fill="none" stroke="#6D3C3C" stroke-width="6" d="M100.663,413.464"/>
	<path fill="none" stroke="#F2D60A" stroke-width="40" d="M210.295,367.371c0,113.311-35.334,205-79,205"/>
	<path fill="none" stroke="#F2D60A" stroke-width="40" d="M177.863,321.893c20.318,86.687-3.777,166.333-53.872,178.074"/>
	<path fill="#B76F48" stroke="#020202" stroke-width="6" d="M420.112,325.7c-47-29.665-73.461-60.062-156-26.5
		c-18.059,7.344-112,0-89.999,141.35c17.958,115.37,69.088,130.123,133.999,161.485c60.91,29.43,80.792,0.352,132.314-53.57
		C522.229,462.85,424.112,333.2,420.112,325.7"/>
	<path fill="#F40808" stroke="#6D3C3C" stroke-width="6" d="M439.517,506.359c-24.498-12.898-34.997-31.527-62.997-20.062
		c-27.999,11.464-10.499,20.784-45.496,8.242c-34.999-12.541-43.748-20.417-61.247,0c-17.499,20.418-43.748,7.521,0,31.883
		c43.747,24.361,96.244,42.99,117.243,27.227S439.517,506.359,439.517,506.359z"/>
	<path fill="none" stroke="#6D3C3C" stroke-width="6" d="M399.088,508.919c0.839,6.934-32.66,17.258-108.265,4.198"/>
	<path fill="none" stroke="#6D3C3C" stroke-width="6" d="M283.343,410.569c0,8.441-29.734,5.166-43,5.166"/>
	<path fill="none" stroke="#6D3C3C" stroke-width="6" d="M405.387,385.283c0,6.95-17.49,12.575-39.102,12.575"/>
	<path fill="none" stroke="#6D3C3C" stroke-width="6" d="M362.177,467.221c-0.2-4.134,5.926-7.783,13.694-8.16"/>
	<path fill="none" stroke="#F2D60A" stroke-width="40" d="M207.999,354.893c25.857,110.321,12.378,207.654-30.136,217.619"/>
	<path fill="none" stroke="#6D3C3C" stroke-width="6" d="M334.946,468.683c2.777-3.068,9.693-1.329,15.46,3.89"/>
	<path fill="none" stroke="#F2D60A" stroke-width="30" d="M288.423,322.248c-11.965,59.448-49.491,101.949-83.899,95.023"/>
	<path fill="none" stroke="#6D3C3C" stroke-width="20" d="M245.726,333.412c-16.269,77.928-56.578,135.318-90.124,128.314"/>
	<path fill="none" stroke="#F2D60A" stroke-width="40" d="M364.427,274.499c0,113.311-35.334,205-79,205"/>
	<path fill="none" stroke="#F2D60A" stroke-width="30" d="M374.813,265.695c0,43.942,36.676,79.5,82,79.5"/>
	<path fill="none" stroke="#F2D60A" stroke-width="10" d="M352.837,309.695c0,29.295,29.52,53,66,53"/>
	<path fill="none" stroke="#F2DD1C" stroke-width="30" d="M183.931,367.687c0,38.577-42.187,46.623-51.329,46.623"/>
	<path fill="#F4E921" stroke="#F4F414" stroke-width="20" d="M322.196,315.347c0,23.046,11.408,41.694,25.5,41.694"/>
	<path fill="none" stroke="#F7ED3C" stroke-width="20" d="M307.613,327.304c0,13.926-7.229,25.194-16.165,25.194"/>
	<path fill="#72693B" stroke="#6D3C3C" stroke-width="6" d="M398.842,285.178c0.231-20.227,2.757-59.674,0.686-82.25
		c-2.069-22.574-10.778-54.979-23.188-18.622c-12.411,36.359-6.649,34.154-14.226,45.298c-7.578,11.144-5.67,26.909-25.994-9.304
		c-20.322-36.211-41.654-100.932-41.681-54.862c-0.027,46.069,0.967,120.594-14.192,97.528
		c-15.159-23.066-61.699-115.912-57.797-78.918c3.9,36.991,5.315,36.734,9.426,76.254c4.109,39.519,7.778,49.113-16.364,33.603
		c-24.141-15.507-83.446-73.567-63.723-31.809c19.723,41.761,66.597,83.974,36.628,68.112
		c-29.967-15.861-106.955-53.488-83.316-21.432c23.636,32.051,24.18,17.176,55.415,67.53c6.335,10.213,118.287-42.33,118.287-42.33
		L398.842,285.178z"/>
	<path fill="#26EAC4" stroke="#6D3C3C" stroke-width="6" d="M289.09,247.058c12.627,23.158,8.999,49.479-8.095,58.798
		c-17.096,9.321-41.183-1.888-53.809-25.046c-12.624-23.152-9-49.478,8.095-58.798C252.375,212.692,276.468,223.905,289.09,247.058z
		"/>
	
		<ellipse transform="matrix(0.9868 -0.1618 0.1618 0.9868 -49.1924 24.2001)" fill="#EDD024" stroke="#6D3C3C" stroke-width="6" cx="123.991" cy="314.138" rx="22.948" ry="21.075"/>
	<path fill="#EDD024" stroke="#6D3C3C" stroke-width="6" d="M412.436,202.103c2.298,14.018-7.75,27.327-22.439,29.735
		c-14.691,2.408-28.462-6.996-30.76-21.013c-2.298-14.014,7.748-27.326,22.439-29.735
		C396.366,178.682,410.139,188.09,412.436,202.103z"/>
	<path fill="#EDD024" stroke="#6D3C3C" stroke-width="6" d="M334.213,180.843c2.298,14.017-7.75,27.328-22.44,29.736
		c-14.691,2.408-28.46-6.996-30.76-21.014c-2.296-14.013,7.748-27.326,22.439-29.735
		C318.141,157.422,331.915,166.83,334.213,180.843z"/>
	<path fill="#EDD024" stroke="#6D3C3C" stroke-width="6" d="M197.394,270.136c2.299,14.018-7.75,27.328-22.438,29.736
		c-14.691,2.408-28.462-6.996-30.761-21.014c-2.297-14.013,7.748-27.326,22.44-29.735
		C181.324,246.716,195.097,256.124,197.394,270.136z"/>
	<path fill="#EDD024" stroke="#6D3C3C" stroke-width="6" d="M250.85,189.863c1.935,11.797-6.721,23.031-19.328,25.098
		c-12.609,2.067-24.396-5.815-26.33-17.611c-1.933-11.793,6.719-23.029,19.328-25.097
		C237.128,170.185,248.917,178.07,250.85,189.863z"/>
</g>
</svg>
