<?xml version="1.0" encoding="utf-8"?>
<!-- Generator: Adobe Illustrator 14.0.0, SVG Export Plug-In . SVG Version: 6.00 Build 43363)  -->
<!DOCTYPE svg PUBLIC "-//W3C//DTD SVG 1.1//EN" "http://www.w3.org/Graphics/SVG/1.1/DTD/svg11.dtd">
<svg version="1.1" id="Layer_1" xmlns="http://www.w3.org/2000/svg" xmlns:xlink="http://www.w3.org/1999/xlink" x="0px" y="0px"
	 width="595.28px" height="841.89px" viewBox="0 0 595.28 841.89" enable-background="new 0 0 595.28 841.89" xml:space="preserve">
<g id="XMLID_1_">
	<g>
		<path fill="#E2001A" d="M575.507,220.785c22.373,216.066-195.196,353.354-201.8,314.872
			c-19.122-111.544-91.394-162.7-101.896-218.67c-30.437-162.165,56.173-243.147,152.117-93.209
			C423.927,223.777,559.581,67.018,575.507,220.785z"/>
	</g>
	<g>
		<path fill="none" stroke="#000000" stroke-width="10" d="M575.507,220.785c-15.926-153.767-151.579,2.993-151.579,2.993
			c-95.944-149.938-182.554-68.955-152.117,93.209c10.503,55.97,82.774,107.126,101.896,218.67
			C380.31,574.139,597.88,436.851,575.507,220.785z"/>
	</g>
</g>
<text transform="matrix(4.1665 0 0 1 35.511 111.2773)" font-family="'Palatino-Roman'" font-size="110.0655">J</text>
<text transform="matrix(4.2608 0 0 1 426.3484 773.6079)" font-family="'Palatino-Roman'" font-size="113.0888">J</text>
<g id="XMLID_2_">
	<g>
		<path fill="#E2001A" d="M292.284,140.788c133.909,147.022,25.456,368.719-0.581,343.982
			c-75.455-71.709-163.083-69.452-201.701-104.932c-111.897-102.792-82.767-210.471,77.31-152.954
			C167.312,226.885,196.981,36.159,292.284,140.788z"/>
	</g>
	<g>
		<path fill="none" stroke="#000000" stroke-width="10" d="M292.284,140.788c-95.304-104.628-124.972,86.097-124.972,86.097
			C7.236,169.367-21.894,277.046,90.003,379.838c38.618,35.479,126.246,33.223,201.701,104.932
			C317.74,509.506,426.193,287.81,292.284,140.788z"/>
	</g>
</g>
<g id="XMLID_4_">
	<g>
		<path fill="#E2001A" d="M320.723,344.795c116.08,140.306-34.542,336.718-57.75,312.941
			C195.716,588.81,103.398,586.587,68.772,552.42c-100.331-98.986-51.879-195.535,106.524-135.389
			C175.297,417.032,238.11,244.95,320.723,344.795z"/>
	</g>
	<g>
		<path fill="none" stroke="#000000" stroke-width="10" d="M320.723,344.795c-82.614-99.846-145.427,72.236-145.427,72.236
			C16.893,356.886-31.559,453.434,68.772,552.42c34.626,34.167,126.944,36.39,194.201,105.316
			C286.182,681.513,436.803,485.101,320.723,344.795z"/>
	</g>
</g>
<path fill="none" stroke="#6D3C3C" stroke-width="6" d="M-527.86,569.445"/>
<path fill="none" stroke="#6D3C3C" stroke-width="6" d="M273.865,423.833"/>
<path fill="none" stroke="#6D3C3C" stroke-width="6" d="M254.865,402.61"/>
<g>
	<path fill="none" stroke="#F2D60A" stroke-width="30" stroke-linecap="square" d="M217.417,381.447
		c0,122.738-22.978,222.058-51.374,222.058"/>
	<path fill="none" stroke="#F2D60A" stroke-width="40" d="M360.87,335.662c0,46.992,29.422,85.019,65.782,85.019"/>
	<path fill="none" stroke="#F2D60A" stroke-width="40" d="M212.191,384.951c-11.926,95.362-49.327,163.538-83.622,152.429"/>
	<path fill="#B2AA7B" d="M205.417,483.059c16,24.756,45.357,34.756,51.679,56.756c6.32,22,33.754,98,62.037,68s40.09-82,59.688-120
		c19.596-38,4.25-92.67-17.576-120.835c-21.828-28.165-145.396-4.464-150.828,0"/>
	<path fill="none" stroke="#F2D60A" stroke-width="20" d="M353.925,351.662c0,70.488,36.555,127.526,81.728,127.526"/>
	<path fill="#F4E921" stroke="#F4F414" stroke-width="30" d="M335.052,362.289c0,52.997,11.369,95.881,25.417,95.881"/>
	<path fill="none" stroke="#F2DD1C" stroke-width="20" d="M331.502,339.382c0,49.444-22.882,89.455-51.161,89.455"/>
	<path fill="#070707" d="M383.311,331.253c2.67-49.482,18.745-155.817,0-94.753c-18.746,61.063-45.178,97.912-48.967,76.855
		c-3.791-21.057-12.607-185.295-22.685-121.074c-10.079,64.222-3.779,149.5-16.377,110.545s-84.4-218.985-64.245-109.493
		s20.849,121.838,9.544,106.463c-26.998-36.72-120.028-173.843-72.345-71.72c47.684,102.123,66.886,129.28,20.278,90.326
		c-46.609-38.954-112.41-126.122-41.873-28.21c70.538,97.912-178.562-79.316,42.824,96.859
		C268.677,450.086,383.311,331.253,383.311,331.253z"/>
	<path fill="none" stroke="#0F0F0E" stroke-width="10" d="M286.79,553.219c0-9.949,12.484-18,27.912-18"/>
	<path fill="none" stroke="#0F0F0E" stroke-width="10" d="M267.477,471.407c5,29.611,13,42.291,24,15.451"/>
	
		<ellipse transform="matrix(0.9523 0.3052 -0.3052 0.9523 142.6364 -52.0557)" fill="none" stroke="#0F0F0E" stroke-width="10" cx="237.81" cy="430.171" rx="18" ry="6.999"/>
	<path fill="none" stroke="#F7ED3C" stroke-width="20" d="M265.921,384.289c0,22.338-7.206,40.414-16.111,40.414"/>
</g>
</svg>
