<?xml version="1.0" encoding="utf-8"?>
<!-- Generator: Adobe Illustrator 14.0.0, SVG Export Plug-In . SVG Version: 6.00 Build 43363)  -->
<!DOCTYPE svg PUBLIC "-//W3C//DTD SVG 1.1//EN" "http://www.w3.org/Graphics/SVG/1.1/DTD/svg11.dtd">
<svg version="1.1" id="Layer_1" xmlns="http://www.w3.org/2000/svg" xmlns:xlink="http://www.w3.org/1999/xlink" x="0px" y="0px"
	 width="595.28px" height="841.89px" viewBox="0 0 595.28 841.89" enable-background="new 0 0 595.28 841.89" xml:space="preserve">
<path fill="#070707" stroke="#9B7676" stroke-width="30" d="M407.14,272.445c122.337-85.262-73.981-173-73.981-173
	s-314.885-23.148-189.287,139.8c34.531,44.8,54.047,54.729,47.287,80.2c-7.58,28.559-65.58-26.572-87-47
	c-99.468-94.862-32.019,194-32.019,194l157.019-9l-26,148c0,0,102.981,42,182.981-8c-32-339,17-121,88-96
	c65,34,83.974-101.728,84.992-149.948C573.786,273.228,407.14,272.445,407.14,272.445z"/>
</svg>
